<?xml version="1.0" encoding="UTF-8" standalone="no"?>
<!DOCTYPE svg PUBLIC "-//W3C//DTD SVG 1.1//EN" "http://www.w3.org/Graphics/SVG/1.1/DTD/svg11.dtd">
<svg width="100%" height="100%" viewBox="0 0 100 100" version="1.1" xmlns="http://www.w3.org/2000/svg" xmlns:xlink="http://www.w3.org/1999/xlink" xml:space="preserve" xmlns:serif="http://www.serif.com/" style="fill-rule:evenodd;clip-rule:evenodd;stroke-linejoin:round;stroke-miterlimit:2;">
    <g>
        <g transform="matrix(1.17647,0,0,1.17647,-17.6471,-17.6471)">
            <path d="M57.5,15L94.306,36.25L94.306,78.75L57.5,100L20.694,78.75L20.694,36.25L57.5,15Z" style="fill:rgb(142,142,142);"/>
        </g>
        <g transform="matrix(0.925,0,0,0.925,5.6,7.45)">
            <circle cx="48" cy="46" r="40" style="fill:rgb(102,102,102);"/>
        </g>
        <g transform="matrix(0.775,0,0,0.775,12.8,14.35)">
            <circle cx="48" cy="46" r="40" style="fill:rgb(47,47,47);"/>
        </g>
    </g>
    <g>
        <g>
            <g transform="matrix(0.85,0,0,0.85,9.2,10.9)">
                <circle cx="48" cy="46" r="40" style="fill:rgb(238,118,116);"/>
            </g>
            <g transform="matrix(1.47619,0,0,1.80885,-23.8095,-42.0759)">
                <path d="M50,36C62.97,36 71,37.57 71,54.956C71,58.894 65.731,63.016 64.903,67.488C62.077,82.759 59.532,99 49.5,99C39.468,99 37.652,82.759 35.097,67.488C34.348,63.016 29,58.894 29,54.956C29,37.57 37.03,36 50,36Z" style="fill:url(#_Linear1);"/>
            </g>
        </g>
        <g transform="matrix(1.47619,0,0,1.00847,-23.8095,-3.17769)">
            <path d="M49.989,21C60.324,21.052 63.271,28.313 66,32C67.059,33.431 70.513,41.75 70.304,46C70.286,46.353 69.626,46.649 69,47C66.056,48.651 59.279,41 51,41C42.721,41 32.226,36.043 34,32C35.526,28.522 40.427,20.952 49.989,21Z" style="fill:white;fill-opacity:0.29;"/>
        </g>
    </g>
    <defs>
        <linearGradient id="_Linear1" x1="0" y1="0" x2="1" y2="0" gradientUnits="userSpaceOnUse" gradientTransform="matrix(6.222e-16,8.29257,-14.874,7.43273e-16,50,70.2524)"><stop offset="0" style="stop-color:rgb(238,118,116);stop-opacity:1"/><stop offset="0.48" style="stop-color:rgb(222,134,133);stop-opacity:0.73"/><stop offset="1" style="stop-color:rgb(179,179,179);stop-opacity:0"/></linearGradient>
    </defs>
</svg>
