<?xml version="1.0" encoding="UTF-8" standalone="no"?>
<!DOCTYPE svg PUBLIC "-//W3C//DTD SVG 1.1//EN" "http://www.w3.org/Graphics/SVG/1.1/DTD/svg11.dtd">
<svg width="100%" height="100%" viewBox="0 0 1000 1000" version="1.1" xmlns="http://www.w3.org/2000/svg" xmlns:xlink="http://www.w3.org/1999/xlink" xml:space="preserve" xmlns:serif="http://www.serif.com/" style="fill-rule:evenodd;clip-rule:evenodd;stroke-linejoin:round;stroke-miterlimit:2;">
    <g transform="matrix(1.17764,0,0,1.17764,-177.64,-94.2112)">
        <circle cx="575.422" cy="504.578" r="424.578" style="fill:rgb(133,133,133);"/>
    </g>
    <g transform="matrix(0.8,0,0,0.8,100,95.6608)">
        <path d="M500,20C580.636,70.785 674.468,97.786 770.32,97.786C810.139,183.232 874.18,255.661 954.816,306.447C941.175,399.426 955.092,494.288 994.911,579.734C932.141,650.726 891.516,737.903 877.875,830.882C785.905,857.346 703.636,909.16 640.866,980.152C548.897,953.687 451.103,953.687 359.134,980.152C296.364,909.16 214.095,857.346 122.125,830.882C108.484,737.903 67.859,650.726 5.089,579.734C44.908,494.288 58.825,399.426 45.184,306.447C125.82,255.661 189.861,183.232 229.68,97.786C325.532,97.786 419.364,70.785 500,20Z" style="fill:rgb(183,183,183);"/>
    </g>
    <g transform="matrix(1,0,0,0.896195,-4.92509,63.598)">
        <path d="M540,169.022C540,147.422 524.283,129.885 504.925,129.885C485.567,129.885 469.85,147.422 469.85,169.022L469.85,380.862C469.85,402.463 485.567,420 504.925,420C524.283,420 540,402.463 540,380.862L540,169.022Z" style="fill:rgb(154,154,154);"/>
    </g>
</svg>
