<?xml version="1.0" encoding="UTF-8" standalone="no"?>
<!DOCTYPE svg PUBLIC "-//W3C//DTD SVG 1.1//EN" "http://www.w3.org/Graphics/SVG/1.1/DTD/svg11.dtd">
<svg width="100%" height="100%" viewBox="0 0 1000 1000" version="1.1" xmlns="http://www.w3.org/2000/svg" xmlns:xlink="http://www.w3.org/1999/xlink" xml:space="preserve" xmlns:serif="http://www.serif.com/" style="fill-rule:evenodd;clip-rule:evenodd;stroke-linejoin:round;stroke-miterlimit:2;">
    <g transform="matrix(1,0,0,0.847103,6.7216,109.173)">
        <path d="M800,480C729.196,410.893 600.516,402.058 500,402.729C400.488,403.392 284.251,408.561 200,480L280,960C424.148,980.593 570.75,981.122 720,960L800,480Z" style="fill:rgb(144,144,144);"/>
    </g>
    <g transform="matrix(1,0,0,1,6.7216,-40)">
        <path d="M500,540C654.536,540 780,573.443 780,590C780,606.557 654.536,660 500,660C345.464,660 220,606.557 220,590C220,573.443 345.464,540 500,540Z" style="fill:rgb(107,77,58);"/>
    </g>
    <g transform="matrix(1,0,0,0.847103,6.7216,109.173)">
        <path d="M800,480C759.878,566.739 601.293,570.56 500,570.15C401.22,569.751 226.413,559.088 200,480L280,960C424.566,1029.98 571.174,1031.19 720,960L800,480Z" style="fill:rgb(235,235,235);"/>
    </g>
    <g transform="matrix(1,0,0,1,6.7216,-40)">
        <g transform="matrix(1.5405,0,0,1.5405,-249.867,-330.394)">
            <path d="M395.453,602.745C392.193,599.486 391.545,592.856 389.826,588.731C384.086,574.957 375.52,561.457 366.328,549.776C348.502,527.124 324.249,513.709 301.214,497.478C286.433,487.063 270.002,481.652 254.038,473.67C249.144,471.223 244.25,468.776 239.344,466.323C233.954,463.628 230.99,462.056 231.408,462.056C238.225,462.056 261.702,477.298 269.799,480.153C304.948,492.546 343.615,500.953 372.657,525.569C384.312,535.448 391.141,549.698 400.172,561.739C403.976,566.811 407.742,570.845 410.529,576.42C410.968,577.297 411.844,579.05 411.844,579.05C411.844,579.05 411.79,576.581 411.581,575.368C410.589,569.585 411.284,563.515 410.699,557.657C409.141,542.079 408.504,526.301 407.201,510.669C403.37,464.692 398.537,416.988 386.548,372.151C381.689,353.98 377.726,335.317 374.025,316.812C370.525,299.312 368.381,287.498 368.957,287.498C370.442,287.498 392.655,321.433 394.836,324.705C413.823,353.186 429.837,388.758 432.794,423.352C433.935,436.709 434.454,450.964 436.839,464.138C439.216,477.271 438.804,491.214 440.15,504.477C440.755,510.429 441.349,516.812 441.349,522.746C441.349,523.89 441.612,526.166 441.612,526.166C441.612,526.166 441.664,523.118 442.138,521.694C444.184,515.559 445.228,508.31 446.514,501.879C449.494,486.977 451.526,470.928 455.901,456.345C461.193,438.707 465.134,420.531 470.04,402.738C478.396,372.438 490.871,343.825 497.048,312.941C499.615,300.104 500.854,285.875 500.854,272.743C500.854,267.345 501.322,262.016 501.322,256.577C501.322,255.522 501.059,253.421 501.059,253.421C501.059,253.421 503.054,268.97 504.342,276.7C506.71,290.911 509.981,305.636 511.108,319.856C515.118,370.498 513.198,418.056 501.67,467.607C498.091,482.99 493.436,498.096 488.918,513.153C486.938,519.753 484.849,526.958 483.718,533.742C483.476,535.195 483.12,538.12 483.12,538.12C483.12,538.12 488.042,529.914 491.829,527.209C500.922,520.714 510.766,514.418 521.527,510.769C549.053,501.435 597.341,479.469 619.126,460.408C638.314,443.618 650.731,419.692 658.603,395.767C661.13,388.086 662.139,380.146 663.876,372.261C663.995,371.718 664.625,361.184 665.205,361.184C667.025,361.184 665.205,364.825 665.205,366.646C665.205,380.86 664.004,395.073 664.004,409.164C664.004,458.323 638.004,512.341 602.209,545.339C590.82,555.838 578.496,566.855 567.817,577.534C567.207,578.144 565.303,581.333 564.134,580.164C563.567,579.597 564.643,577.288 564.923,577.008C575.367,566.564 588.431,560.359 599.68,550.824C630.845,524.407 661.018,507.137 703.046,507.137C706.626,507.137 729.427,502.831 733.323,506.727C735.033,508.437 717.989,516.404 716.689,517.135C705.765,523.278 697.045,531.104 687.193,538.8C675.412,548.002 665.084,559.686 651.633,566.412C637.751,573.353 621.92,577.783 608.529,585.313C603.51,588.135 583.654,595.75 580,603.74C573.626,617.676 394.75,614.307 395.453,602.745Z" style="fill:rgb(87,170,0);"/>
        </g>
        <path d="M436.812,580.394C462.041,567.781 468.203,542.218 486.998,523.421C493.591,516.827 500.468,510.381 507.275,503.574C538.363,472.486 631.663,446.543 674.647,441.17C694.677,438.666 715.323,435.299 735.272,431.974C741.828,430.881 749.647,429.266 756.271,427.058C757.035,426.803 765.95,425.027 765.95,425.169C765.95,428.539 755.679,440.422 753.155,442.945C735.008,461.091 727.166,476.739 703.747,491.604C652.796,523.947 587.81,529.663 530.307,542.247C498.764,549.15 468.62,580.394 436.812,580.394Z" style="fill:rgb(7,143,0);"/>
        <path d="M437.027,580.46C431.797,575.229 422.264,574.899 416.274,570.407C396.783,555.787 384.191,531.974 373.502,510.597C365.579,494.751 355.549,478.199 345.292,463.644C337.14,452.074 330.3,438.56 319.338,429.268C311.781,422.863 301.487,414.473 290,414.171C283.024,413.988 256.483,420.344 260,420C263.815,419.627 281.658,406.918 290,400C294.877,395.956 304.439,394.257 310,393.562C332.861,390.705 357.777,403.102 375.356,420.681C387.277,432.602 385.547,447.409 390.188,462.881C396.541,484.059 399.658,505.713 409.231,526.012C415.782,539.901 424.42,552.468 431.819,565.626C433.741,569.044 437.027,577.054 437.027,580.46Z" style="fill:rgb(7,143,0);"/>
        <path d="M441.183,581.604C438.548,573.698 428.48,564.108 424.505,557.037C415.47,540.971 411.564,520.48 409.704,502.159C405.825,463.953 413.236,428.441 417.037,390.995C419.064,371.027 418.419,350.725 418.419,330.576C418.419,301.549 418.575,272.207 415.698,243.435C414.795,234.399 413.446,225.415 412.323,216.43C411.894,213.004 410.609,209.682 410.038,206.353C409.966,205.933 409.071,201.995 409.395,202.103C415.027,203.981 421.264,215.886 424.148,221.015C436.597,243.153 442.401,268.249 447.863,293.044C452.873,315.788 455.813,345.856 452.013,369.233C448.781,389.113 442.675,413.034 446.079,433.465C451.145,463.867 467.722,494.496 462.522,526.476C460.301,540.131 457.048,552.88 452.761,565.738C451.26,570.24 441.183,577.988 441.183,581.604Z" style="fill:rgb(7,143,0);"/>
        <path d="M426.754,585.194C417.114,594.833 411.098,599.93 397.962,603.214C389.922,605.224 382.431,606.486 374.139,606.486C366.428,606.486 357.269,605.257 350.001,602.834C349.309,602.604 347.857,603.135 347.857,602.406C347.857,600.087 357.7,597.189 358.716,594.141C362.548,582.639 358.281,570.947 366.065,563.165C376.255,552.977 407.899,566.982 415.82,574.903C418.38,577.463 426.754,582.247 426.754,585.194Z" style="fill:rgb(7,143,0);"/>
        <path d="M443.022,586.677C449.541,593.195 459.041,602.448 465.805,609.212C481.216,624.623 533.545,616.896 551.392,609.012C561.541,604.529 573.097,601.471 583.793,599.634C587.657,598.971 591.962,598.385 595.888,598.385C597.959,598.385 603.494,598.933 602.031,597.469C600.261,595.698 590.012,594.615 587.136,593.492C558.685,582.38 555.016,589.415 525.985,593.044C521.744,593.574 512.36,595.057 508.505,596.985C501.905,600.285 473.311,582.183 464.766,580.047C456.344,577.942 448.798,586.677 443.022,586.677Z" style="fill:rgb(7,143,0);"/>
    </g>
</svg>
